<svg width="233" height="30" viewBox="0 0 233 30" fill="none" xmlns="http://www.w3.org/2000/svg">
<path d="M31.1718 3.66418C21.8451 0.348611 11.7076 0.074761 2.21558 2.88198C1.83828 2.97227 1.48304 3.13766 1.17108 3.36827C0.859111 3.59889 0.596816 3.89 0.39985 4.22423C0.202884 4.55847 0.0752869 4.92896 0.0246769 5.3136C-0.0259332 5.69823 0.00148172 6.08912 0.105285 6.46293C0.624801 8.54783 1.38259 10.9433 2.29272 13.1151C2.30835 13.1659 2.33276 13.1414 2.33276 13.0907C2.20093 12.0721 2.98411 10.786 4.5202 10.3183C11.9023 7.96891 19.8468 8.07409 27.1641 10.6181C27.434 10.7104 27.7196 10.7477 28.0042 10.7279C28.2887 10.7081 28.5664 10.6314 28.8209 10.5026C29.0754 10.3737 29.3015 10.1952 29.4859 9.97751C29.6702 9.75987 29.8092 9.5075 29.8945 9.23531C30.8046 6.30571 31.1718 4.31651 31.2626 3.81847C31.2782 3.7257 31.1962 3.69055 31.1718 3.66516V3.66418ZM8.66949 10.1093C7.55136 10.3427 6.0055 10.7099 4.84538 11.0946C2.52611 11.8944 2.63353 14.7166 3.86885 15.617C3.95967 15.0935 4.5202 14.3816 5.14518 14.1414C7.46054 13.2313 9.9468 12.6874 12.4604 12.4628C11.1831 11.9442 9.93703 11.2011 8.68609 10.1083L8.66949 10.1093ZM27.1328 15.7595C23.8008 14.194 20.1887 13.3122 16.5101 13.1665C12.8315 13.0207 9.16094 13.6139 5.71547 14.9109C4.61101 15.3279 3.91963 16.6716 4.61101 17.947C5.81883 20.1306 7.18954 22.2202 8.71148 24.1978C8.49274 23.44 8.87944 22.0367 10.3638 21.5777C14.4691 20.316 18.7766 20.8512 21.6398 22.0103C22.4484 22.3355 23.5929 22.1383 24.2345 21.1773C25.3286 19.4919 26.3237 17.7442 27.2148 15.9431C27.2549 15.8621 27.2149 15.8015 27.1328 15.7595ZM20.4807 25.8764C19.2797 25.27 18.1814 24.4788 17.2259 23.5318C16.7835 23.0894 16.1322 22.4537 15.4457 21.6959C13.8783 21.6959 12.3569 21.8531 10.73 22.3726C9.21928 22.8453 9.07768 24.5903 9.73879 25.5005C10.8569 26.894 11.6411 27.6459 12.892 28.9388C13.555 29.5891 14.4452 29.9554 15.3738 29.9599C16.3024 29.9645 17.1962 29.607 17.8655 28.9632C18.842 27.9867 19.4426 27.3354 20.5461 26.0844C20.6115 26.018 20.5861 25.9018 20.4797 25.8764H20.4807Z" fill="black"/>
<path d="M64.2645 1.39992V8.43992H53.1445V12.3599H61.1445V19.0399H53.1445V29.7199H44.2645V1.39992H64.2645Z" fill="black"/>
<path d="M86.6324 25.4399H77.1924L75.7924 29.7199H66.4724L76.8324 1.39992H87.0724L97.3924 29.7199H88.0324L86.6324 25.4399ZM84.4724 18.7599L81.9124 10.8799L79.3524 18.7599H84.4724Z" fill="black"/>
<path d="M111.69 29.9999C108.303 29.9999 105.503 29.2133 103.29 27.6399C101.103 26.0399 99.9165 23.7066 99.7299 20.6399H109.17C109.303 22.2666 110.023 23.0799 111.33 23.0799C111.81 23.0799 112.21 22.9733 112.53 22.7599C112.877 22.5199 113.05 22.1599 113.05 21.6799C113.05 21.0133 112.69 20.4799 111.97 20.0799C111.25 19.6533 110.13 19.1733 108.61 18.6399C106.797 17.9999 105.29 17.3733 104.09 16.7599C102.917 16.1466 101.903 15.2533 101.05 14.0799C100.197 12.9066 99.7832 11.3999 99.8099 9.55992C99.8099 7.71992 100.277 6.15992 101.21 4.87992C102.17 3.57326 103.463 2.58659 105.09 1.91992C106.743 1.25325 108.597 0.919922 110.65 0.919922C114.117 0.919922 116.863 1.71992 118.89 3.31992C120.943 4.91992 122.023 7.17326 122.13 10.0799H112.57C112.543 9.27992 112.343 8.70659 111.97 8.35992C111.597 8.01326 111.143 7.83992 110.61 7.83992C110.237 7.83992 109.93 7.97326 109.69 8.23992C109.45 8.47992 109.33 8.82659 109.33 9.27992C109.33 9.91992 109.677 10.4533 110.37 10.8799C111.09 11.2799 112.223 11.7733 113.77 12.3599C115.557 13.0266 117.023 13.6666 118.17 14.2799C119.343 14.8933 120.357 15.7466 121.21 16.8399C122.063 17.9333 122.49 19.3066 122.49 20.9599C122.49 22.6933 122.063 24.2533 121.21 25.6399C120.357 26.9999 119.117 28.0666 117.49 28.8399C115.863 29.6133 113.93 29.9999 111.69 29.9999Z" fill="black"/>
<path d="M153.01 1.39992V29.7199H144.13V18.6799H135.69V29.7199H126.81V1.39992H135.69V11.5999H144.13V1.39992H153.01Z" fill="black"/>
<path d="M167.085 1.39992V29.7199H158.205V1.39992H167.085Z" fill="black"/>
<path d="M186.096 29.9999C183.429 29.9999 180.976 29.3733 178.736 28.1199C176.522 26.8666 174.762 25.1333 173.456 22.9199C172.149 20.7066 171.496 18.2133 171.496 15.4399C171.496 12.6666 172.149 10.1733 173.456 7.95992C174.762 5.74659 176.522 4.02659 178.736 2.79992C180.976 1.54659 183.429 0.919922 186.096 0.919922C188.762 0.919922 191.202 1.54659 193.416 2.79992C195.629 4.02659 197.376 5.74659 198.656 7.95992C199.962 10.1733 200.616 12.6666 200.616 15.4399C200.616 18.2133 199.962 20.7066 198.656 22.9199C197.376 25.1333 195.616 26.8666 193.376 28.1199C191.162 29.3733 188.736 29.9999 186.096 29.9999ZM186.096 21.7199C187.856 21.7199 189.216 21.1599 190.176 20.0399C191.136 18.8933 191.616 17.3599 191.616 15.4399C191.616 13.4933 191.136 11.9599 190.176 10.8399C189.216 9.69325 187.856 9.11992 186.096 9.11992C184.309 9.11992 182.936 9.69325 181.976 10.8399C181.016 11.9599 180.536 13.4933 180.536 15.4399C180.536 17.3599 181.016 18.8933 181.976 20.0399C182.936 21.1599 184.309 21.7199 186.096 21.7199Z" fill="black"/>
<path d="M232.179 29.7199H223.299L213.899 15.4799V29.7199H205.019V1.39992H213.899L223.299 15.8799V1.39992H232.179V29.7199Z" fill="black"/>
</svg>
